<svg viewBox="0 0 11 6" fill="none" xmlns="http://www.w3.org/2000/svg">
<path d="M9.25186 0.275672C9.44567 0.0950457 9.71147 -0.00459089 9.98729 -7.25253e-07C10.2594 0.000479454 10.5203 0.0995141 10.7136 0.275672C11.0953 0.648793 11.0953 1.23079 10.7136 1.60391L6.20121 5.73065C6.00477 5.91712 5.72927 6.01485 5.44762 5.99797C5.17453 6.00224 4.91167 5.90247 4.72127 5.7223L0.290557 1.60391C0.10037 1.42933 -0.0045052 1.19112 1.84325e-05 0.94397C0.00290781 0.565308 0.251452 0.224882 0.631356 0.0792396C1.01126 -0.0664033 1.44899 0.0109279 1.74325 0.275672L5.44762 3.73411L9.25186 0.275672Z" fill="#2D3B4E" fill-opacity="0.5"/>
</svg>
