<svg width="107" height="36" viewBox="0 0 107 36" fill="none" xmlns="http://www.w3.org/2000/svg">
<g clip-path="url(#clip0_2_2476)">
<path d="M0.81 35H1.971V32.417H4.086V31.418H1.971V29.609H4.482V28.61H0.81V35ZM6.03267 31.76C6.03267 33.641 7.45467 35.108 9.33567 35.108C11.2167 35.108 12.6387 33.641 12.6387 31.76C12.6387 29.933 11.2167 28.502 9.33567 28.502C7.45467 28.502 6.03267 29.933 6.03267 31.76ZM7.22967 31.76C7.22967 30.5 8.16567 29.564 9.33567 29.564C10.5057 29.564 11.4417 30.5 11.4417 31.76C11.4417 33.074 10.5057 34.046 9.33567 34.046C8.16567 34.046 7.22967 33.074 7.22967 31.76ZM14.7213 35H15.8823V32.615H16.9983L18.2673 35H19.5633L18.2493 32.615C18.1233 32.39 18.0333 32.3 18.0333 32.3V32.282C18.7083 32.012 19.1133 31.301 19.1133 30.536C19.1133 29.69 18.7083 29.078 18.0693 28.79C17.7903 28.664 17.4753 28.61 16.7823 28.61H14.7213V35ZM15.8823 31.607V29.609H16.7643C17.6733 29.609 17.9343 29.987 17.9343 30.599C17.9343 31.238 17.5473 31.607 16.9263 31.607H15.8823ZM24.6336 35H25.7946V32.795H27.0996C28.2966 32.795 29.1336 31.931 29.1336 30.689C29.1336 29.447 28.2966 28.61 27.0996 28.61H24.6336V35ZM25.7946 31.787V29.609H26.9016C27.5586 29.609 27.9546 30.032 27.9546 30.689C27.9546 31.355 27.5586 31.787 26.8836 31.787H25.7946ZM34.5856 35H35.7826L33.5326 28.61H32.3176L30.0676 35H31.2646L31.8046 33.362H34.0456L34.5856 35ZM32.9386 29.717C32.9386 29.717 33.0736 30.347 33.1906 30.707L33.7576 32.417H32.0836L32.6506 30.707C32.7766 30.347 32.9206 29.717 32.9206 29.717H32.9386ZM37.4991 35H38.6601V32.615H39.7761L41.0451 35H42.3411L41.0271 32.615C40.9011 32.39 40.8111 32.3 40.8111 32.3V32.282C41.4861 32.012 41.8911 31.301 41.8911 30.536C41.8911 29.69 41.4861 29.078 40.8471 28.79C40.5681 28.664 40.2531 28.61 39.5601 28.61H37.4991V35ZM38.6601 31.607V29.609H39.5421C40.4511 29.609 40.7121 29.987 40.7121 30.599C40.7121 31.238 40.3251 31.607 39.7041 31.607H38.6601ZM45.6459 35H46.8069V29.609H48.9039V28.61H43.5489V29.609H45.6459V35ZM50.6457 35H51.8067V31.319C51.8067 30.941 51.7437 30.329 51.7437 30.329H51.7617C51.7617 30.329 52.0497 30.95 52.2927 31.319L54.7137 35H55.8657V28.61H54.7137V32.3C54.7137 32.678 54.7767 33.29 54.7767 33.29H54.7587C54.7587 33.29 54.4707 32.669 54.2277 32.3L51.8067 28.61H50.6457V35ZM58.3836 35H62.3526V34.001H59.5446V32.282H61.6956V31.283H59.5446V29.609H62.2086V28.61H58.3836V35ZM64.4604 35H65.6214V32.615H66.7374L68.0064 35H69.3024L67.9884 32.615C67.8624 32.39 67.7724 32.3 67.7724 32.3V32.282C68.4474 32.012 68.8524 31.301 68.8524 30.536C68.8524 29.69 68.4474 29.078 67.8084 28.79C67.5294 28.664 67.2144 28.61 66.5214 28.61H64.4604V35ZM65.6214 31.607V29.609H66.5034C67.4124 29.609 67.6734 29.987 67.6734 30.599C67.6734 31.238 67.2864 31.607 66.6654 31.607H65.6214ZM70.7982 34.235C70.7982 34.235 71.5812 35.108 73.0032 35.108C74.3352 35.108 75.1092 34.253 75.1092 33.236C75.1092 31.193 72.1032 31.472 72.1032 30.338C72.1032 29.888 72.5262 29.573 73.0662 29.573C73.8672 29.573 74.4792 30.131 74.4792 30.131L74.9832 29.186C74.9832 29.186 74.3352 28.502 73.0752 28.502C71.8512 28.502 70.9332 29.294 70.9332 30.356C70.9332 32.318 73.9482 32.12 73.9482 33.263C73.9482 33.785 73.5072 34.037 73.0212 34.037C72.1212 34.037 71.4282 33.362 71.4282 33.362L70.7982 34.235Z" fill="#2D3B4E"/>
<mask id="mask0_2_2476" style="mask-type:luminance" maskUnits="userSpaceOnUse" x="0" y="0" width="107" height="19">
<path fill-rule="evenodd" clip-rule="evenodd" d="M0.0296634 2.56648H1.61877C1.63225 2.56653 1.64401 2.57559 1.64738 2.58853L5.44217 17.7631C5.44519 17.7763 5.45716 17.7855 5.47077 17.7852H9.12678C9.13997 17.7853 9.15162 17.7767 9.15539 17.7642L12.1461 6.62578C12.2813 6.09412 12.3741 5.55275 12.4237 5.00668H12.4989C12.5482 5.55278 12.641 6.09417 12.7764 6.62578L15.7703 17.7631C15.7737 17.7755 15.785 17.7841 15.7979 17.7841H19.456C19.4695 17.7841 19.4812 17.775 19.4846 17.7621L23.2794 2.58748C23.2828 2.57454 23.2945 2.56548 23.308 2.56543H24.8971C24.9135 2.56543 24.9268 2.55226 24.9268 2.53603V0.128376C24.9268 0.112139 24.9135 0.0989757 24.8971 0.0989757H17.9728C17.9564 0.0989757 17.9432 0.112139 17.9432 0.128376V2.53603C17.9432 2.55226 17.9564 2.56543 17.9728 2.56543H19.9984C20.0073 2.56554 20.0157 2.56962 20.0213 2.57654C20.0268 2.58346 20.0289 2.59249 20.027 2.60113L17.7164 12.6538C17.6172 13.1641 17.55 13.6799 17.5152 14.1984H17.4092C17.357 13.6772 17.2642 13.1608 17.1317 12.6538L13.785 0.122076C13.7816 0.109137 13.7699 0.100079 13.7564 0.100026H11.164C11.1505 0.100079 11.1388 0.109137 11.1354 0.122076L7.78875 12.6538C7.6562 13.1608 7.5634 13.6772 7.51119 14.1984H7.40525C7.37015 13.6799 7.30293 13.1641 7.20396 12.6538L4.89234 2.60113C4.89042 2.59249 4.89253 2.58346 4.89808 2.57654C4.90363 2.56962 4.91202 2.56554 4.92094 2.56543H6.955C6.97138 2.56543 6.98466 2.55226 6.98466 2.53603V0.128376C6.98557 0.120049 6.98285 0.111734 6.97718 0.105519C6.97152 0.0993035 6.96345 0.0957775 6.955 0.0958257H0.0296634C0.0217962 0.0958257 0.0142512 0.0989232 0.0086882 0.104437C0.00312524 0.10995 0 0.117428 0 0.125226V2.53288C0 2.54067 0.00312524 2.54815 0.0086882 2.55366C0.0142512 2.55918 0.0217962 2.56228 0.0296634 2.56228V2.56648ZM23.896 11.4358C23.8569 13.2457 24.5788 14.9901 25.8888 16.2515C27.1989 17.5129 28.9791 18.1776 30.8033 18.0865C32.68 18.1033 34.5062 17.4843 35.9795 16.332C35.9883 16.3221 35.9883 16.3072 35.9795 16.2973L34.7729 14.106C34.7696 14.0984 34.763 14.0926 34.755 14.0904C34.747 14.0881 34.7384 14.0896 34.7316 14.0944C33.6639 14.9062 32.3683 15.3692 31.0236 15.4195C30.0439 15.4619 29.0873 15.1166 28.3646 14.4596C27.6419 13.8026 27.2124 12.8878 27.1706 11.9167C27.1697 11.9083 27.1724 11.8999 27.178 11.8935C27.1836 11.8871 27.1917 11.8834 27.2002 11.8831H36.0378C36.0519 11.8838 36.0643 11.8739 36.0664 11.86C36.0791 11.7351 36.1395 11.145 36.1395 10.81C36.1395 7.45003 34.1266 4.78198 30.4187 4.78198C28.6377 4.72348 26.9142 5.41164 25.6715 6.6775C24.4288 7.94337 23.7819 9.6697 23.8896 11.4327L23.896 11.4358ZM27.2861 10.0162C27.2769 10.0161 27.2682 10.0119 27.2625 10.0048C27.2567 9.99768 27.2545 9.98839 27.2564 9.97948C27.4305 8.41532 28.7621 7.23024 30.3499 7.22638C31.0559 7.24717 31.7225 7.55404 32.194 8.07535C32.6656 8.59666 32.9008 9.28681 32.8448 9.98472C32.8448 10.0017 32.8312 10.0157 32.814 10.0162H27.2861ZM37.7096 13.7521C37.7096 17.2171 39.5995 17.887 41.6421 17.887C42.0217 17.8863 42.401 17.8624 42.7778 17.8156C42.792 17.814 42.8023 17.8014 42.8011 17.7873V15.2673C42.8011 15.2673 42.5489 15.2914 42.1961 15.2914C41.1367 15.2914 40.8857 14.694 40.8857 13.5484V0.126276C40.8857 0.110039 40.8724 0.0968757 40.856 0.0968757H35.7475C35.7312 0.0968757 35.7179 0.110039 35.7179 0.126276V2.43628C35.7179 2.45251 35.7312 2.46568 35.7475 2.46568H37.6778C37.6942 2.46568 37.7074 2.47884 37.7074 2.49508L37.7096 13.7521ZM43.0786 11.461C43.0786 15.5707 46.4062 18.0865 50.1618 18.0865C52.1075 18.0803 53.9874 17.388 55.4652 16.1335C55.4745 16.1244 55.4766 16.1103 55.4705 16.0989L54.3624 13.9086C54.3589 13.9006 54.3519 13.8946 54.3435 13.8923C54.335 13.8901 54.3259 13.8918 54.3189 13.897C53.1936 14.8193 51.7963 15.354 50.3377 15.4206C49.2449 15.4767 48.1798 15.0683 47.4097 14.2979C46.6396 13.5274 46.2376 12.4679 46.3045 11.3854C46.2113 10.3514 46.5737 9.32789 47.2983 8.57827C48.023 7.82865 49.0392 7.42609 50.0855 7.47418C51.1693 7.47418 52.4809 7.87213 52.4809 8.71948V9.53743C52.4809 9.55366 52.4941 9.56683 52.5105 9.56683H55.2247C55.2411 9.56683 55.2544 9.55366 55.2544 9.53743V7.82278C55.2544 5.58103 52.1291 4.78408 49.986 4.78408C48.1653 4.72122 46.3978 5.39874 45.0936 6.65944C43.7894 7.92014 43.0618 9.65445 43.0797 11.46L43.0786 11.461ZM55.8837 11.4358C55.89 13.2627 56.6508 15.0074 57.9889 16.2639C59.3271 17.5203 61.1259 18.179 62.9669 18.0865C66.3997 18.2333 69.4006 15.8116 69.9515 12.4501C70.1863 10.4893 69.5568 8.52334 68.2243 7.05544C66.8917 5.58754 64.9855 4.76018 62.9933 4.78513C61.1489 4.68892 59.3452 5.34547 58.002 6.60196C56.6588 7.85844 55.8933 9.60526 55.8837 11.4358ZM59.136 11.4358C59.0922 10.4011 59.4762 9.39345 60.1993 8.64585C60.9224 7.89825 61.9219 7.47546 62.9669 7.47523C64.008 7.48053 65.0021 7.90574 65.7202 8.65293C66.4383 9.40012 66.8185 10.4049 66.7733 11.4358C66.8231 12.468 66.4444 13.4753 65.7253 14.2236C65.0062 14.9718 64.0094 15.3956 62.9669 15.3964C61.9206 15.4004 60.9185 14.9789 60.1945 14.2304C59.4705 13.4818 59.0879 12.4717 59.136 11.4358ZM70.8107 17.7873H77.6587C77.6751 17.7873 77.6884 17.7741 77.6884 17.7579V15.4479C77.6884 15.4316 77.6751 15.4185 77.6587 15.4185H75.8757C75.8593 15.4185 75.846 15.4053 75.846 15.3891V12.3294C75.846 10.0383 76.88 7.67158 79.1482 7.67158C80.661 7.67158 80.8878 8.84233 80.8878 10.2126V17.7558C80.8878 17.772 80.901 17.7852 80.9174 17.7852H85.8966C85.913 17.7852 85.9263 17.772 85.9263 17.7558V15.4458C85.9263 15.4295 85.913 15.4164 85.8966 15.4164H84.0956C84.0878 15.4164 84.0802 15.4133 84.0747 15.4078C84.0691 15.4023 84.066 15.3948 84.066 15.387V12.1782C84.066 9.83668 85.1497 7.66948 87.3427 7.66948C88.8259 7.66948 89.1066 8.76568 89.1066 10.2105V17.7537C89.1066 17.7699 89.1199 17.7831 89.1363 17.7831H94.1441C94.1605 17.7831 94.1738 17.7699 94.1738 17.7537V15.4437C94.1738 15.4274 94.1605 15.4143 94.1441 15.4143H92.3431C92.3267 15.4143 92.3135 15.4011 92.3135 15.3849V9.60988C92.3135 6.27193 90.7752 4.77988 88.1818 4.77988C86.2818 4.78819 84.5503 5.86141 83.7111 7.55083H83.656C83.3596 5.85282 81.81 4.65599 80.0763 4.78618C78.2037 4.87206 76.5253 5.95723 75.6914 7.62118H75.6405C75.672 7.44009 75.689 7.25682 75.6914 7.07308V6.50083C75.6914 5.60413 75.1362 5.08123 74.0016 5.08123H70.6836C70.6672 5.08123 70.6539 5.09439 70.6539 5.11063V7.42063C70.6539 7.43686 70.6672 7.45003 70.6836 7.45003H72.0608C72.2155 7.44975 72.364 7.51047 72.4735 7.6188C72.583 7.72713 72.6445 7.87418 72.6445 8.02753V15.3922C72.6445 15.4 72.6414 15.4075 72.6358 15.413C72.6303 15.4185 72.6227 15.4216 72.6149 15.4216H70.8139C70.7975 15.4216 70.7842 15.4348 70.7842 15.451V17.761C70.7842 17.7773 70.7975 17.7904 70.8139 17.7904L70.8107 17.7873ZM94.374 11.4358C94.3349 13.2455 95.0567 14.9897 96.3665 16.2511C97.6763 17.5124 99.4563 18.1773 101.28 18.0865C103.157 18.1036 104.983 17.4845 106.457 16.332C106.465 16.3221 106.465 16.3072 106.457 16.2973L105.249 14.106C105.246 14.0984 105.239 14.0926 105.231 14.0904C105.223 14.0881 105.214 14.0896 105.207 14.0944C104.14 14.9061 102.844 15.3692 101.5 15.4195C100.52 15.4622 99.5628 15.117 98.8399 14.46C98.117 13.8029 97.6872 12.888 97.6454 11.9167C97.6449 11.9082 97.6478 11.8998 97.6536 11.8935C97.6594 11.8871 97.6675 11.8834 97.6762 11.8831H106.514C106.528 11.8838 106.54 11.8739 106.542 11.86C106.555 11.7351 106.615 11.145 106.615 10.81C106.615 7.45003 104.603 4.78198 100.895 4.78198C99.1136 4.72348 97.3902 5.41164 96.1474 6.6775C94.9047 7.94337 94.2578 9.6697 94.3655 11.4327L94.374 11.4358ZM97.7641 10.0162C97.755 10.0158 97.7466 10.0115 97.741 10.0044C97.7353 9.99743 97.7329 9.98834 97.7344 9.97948C97.9086 8.41532 99.2402 7.23024 100.828 7.22638C101.534 7.24745 102.2 7.55444 102.671 8.07572C103.143 8.597 103.378 9.28699 103.322 9.98472C103.322 9.99298 103.319 10.001 103.313 10.0069C103.307 10.0129 103.299 10.0162 103.291 10.0162H97.7641Z" fill="white"/>
</mask>
<g mask="url(#mask0_2_2476)">
<mask id="mask1_2_2476" style="mask-type:luminance" maskUnits="userSpaceOnUse" x="0" y="0" width="174" height="57">
<path fill-rule="evenodd" clip-rule="evenodd" d="M0 56.9249H173.743V0.0999756H0V56.9249Z" fill="white"/>
</mask>
<g mask="url(#mask1_2_2476)">
<path d="M-0.434357 -0.334717H107.058V18.5107H-0.434357V-0.334717Z" fill="#2D3A4E"/>
</g>
</g>
</g>
<defs>
<clipPath id="clip0_2_2476">
<rect width="107" height="36" fill="white"/>
</clipPath>
</defs>
</svg>
