<svg xmlns="http://www.w3.org/2000/svg" viewBox="0 0 20 72" fill="none" class="icon">
  <g clip-path="url(#a)">
    <path fill-rule="evenodd" clip-rule="evenodd" d="M10 15a5 5 0 1 0 0-10 5 5 0 0 0 0 10m0-2a3 3 0 1 1 0-6 3 3 0 0 1 0 6" fill="#48D9A4"/>
    <g clip-path="url(#b)">
      <mask id="c" style="mask-type:luminance" maskUnits="userSpaceOnUse" x="7" y="25" width="6" height="30">
        <path fill="#fff" d="M7 25h6v30H7z"/>
      </mask>
      <g mask="url(#c)"/>
      <g clip-path="url(#d)" fill="#48D9A4">
        <circle cx="10" cy="35" r="1"/>
        <circle cx="10" cy="31" r="1"/>
        <circle cx="10" cy="27" r="1"/>
        <circle cx="10" cy="39" r="1"/>
        <path fill-rule="evenodd" clip-rule="evenodd" d="m10 46.5 2.5-4.5h-5z"/>
      </g>
    </g>
    <path fill-rule="evenodd" clip-rule="evenodd" d="M10 67a5 5 0 1 0 0-10 5 5 0 0 0 0 10m0-2a3 3 0 1 1 0-6 3 3 0 0 1 0 6" fill="#48D9A4"/>
  </g>
  <defs>
    <clipPath id="a">
      <path fill="#fff" d="M0 0h20v72H0z"/>
    </clipPath>
    <clipPath id="b">
      <path fill="#fff" d="M7 25h6v30H7z"/>
    </clipPath>
    <clipPath id="d">
      <path fill="#fff" d="M7 26h6v21H7z"/>
    </clipPath>
  </defs>
</svg>
